<svg xmlns="http://www.w3.org/2000/svg" width="375" viewBox="0 0 375 375" height="375" version="1.0"><defs><clipPath id="a"><path d="M 152.34375 143 L 241.59375 143 L 241.59375 232.21875 L 152.34375 232.21875 Z M 152.34375 143"/></clipPath><clipPath id="b"><path d="M 100 148 L 195 148 L 195 251 L 100 251 Z M 100 148"/></clipPath><clipPath id="c"><path d="M 100.484375 168.238281 L 181.277344 148.160156 L 204.25 240.597656 L 123.457031 260.675781 Z M 100.484375 168.238281"/></clipPath><clipPath id="d"><path d="M 100.484375 168.238281 L 181.277344 148.160156 L 204.25 240.597656 L 123.457031 260.675781 Z M 100.484375 168.238281"/></clipPath><clipPath id="e"><path d="M 100.484375 168.238281 L 181.277344 148.160156 L 204.25 240.597656 L 123.457031 260.675781 Z M 100.484375 168.238281"/></clipPath><clipPath id="f"><path d="M 142 157 L 187 157 L 187 244 L 142 244 Z M 142 157"/></clipPath><clipPath id="g"><path d="M 100.484375 168.238281 L 181.277344 148.160156 L 204.25 240.597656 L 123.457031 260.675781 Z M 100.484375 168.238281"/></clipPath><clipPath id="h"><path d="M 100.484375 168.238281 L 181.277344 148.160156 L 204.25 240.597656 L 123.457031 260.675781 Z M 100.484375 168.238281"/></clipPath><clipPath id="i"><path d="M 100.484375 168.238281 L 181.277344 148.160156 L 204.25 240.597656 L 123.457031 260.675781 Z M 100.484375 168.238281"/></clipPath><clipPath id="j"><path d="M 119 175 L 160 175 L 160 233 L 119 233 Z M 119 175"/></clipPath><clipPath id="k"><path d="M 100.484375 168.238281 L 181.277344 148.160156 L 204.25 240.597656 L 123.457031 260.675781 Z M 100.484375 168.238281"/></clipPath><clipPath id="l"><path d="M 100.484375 168.238281 L 181.277344 148.160156 L 204.25 240.597656 L 123.457031 260.675781 Z M 100.484375 168.238281"/></clipPath><clipPath id="m"><path d="M 100.484375 168.238281 L 181.277344 148.160156 L 204.25 240.597656 L 123.457031 260.675781 Z M 100.484375 168.238281"/></clipPath><clipPath id="n"><path d="M 145 169 L 179 169 L 179 233 L 145 233 Z M 145 169"/></clipPath><clipPath id="o"><path d="M 100.484375 168.238281 L 181.277344 148.160156 L 204.25 240.597656 L 123.457031 260.675781 Z M 100.484375 168.238281"/></clipPath><clipPath id="p"><path d="M 100.484375 168.238281 L 181.277344 148.160156 L 204.25 240.597656 L 123.457031 260.675781 Z M 100.484375 168.238281"/></clipPath><clipPath id="q"><path d="M 100.484375 168.238281 L 181.277344 148.160156 L 204.25 240.597656 L 123.457031 260.675781 Z M 100.484375 168.238281"/></clipPath></defs><g clip-path="url(#a)"><path fill="#F06292" d="M 196.949219 143.039062 C 221.609375 143.039062 241.59375 163.027344 241.59375 187.683594 C 241.59375 212.335938 221.609375 232.324219 196.949219 232.324219 C 172.296875 232.324219 152.308594 212.339844 152.308594 187.683594 C 152.308594 163.027344 172.296875 143.039062 196.949219 143.039062 Z M 196.949219 143.039062" fill-rule="evenodd"/></g><path fill="#FFF" d="M 224.953125 162.148438 C 222.933594 154.21875 209.785156 151.613281 197.34375 156.03125 C 189.941406 158.664062 181.921875 162.792969 176.160156 168.183594 C 169.304688 174.59375 168.214844 180.171875 168.664062 182.503906 C 170.25 190.726562 181.523438 196.105469 186.15625 200.09375 L 186.15625 200.121094 C 184.789062 200.792969 174.789062 205.851562 172.449219 211.027344 C 169.980469 216.484375 172.84375 220.402344 174.738281 220.929688 C 180.609375 222.5625 186.632812 219.625 189.875 214.796875 C 193 210.132812 192.738281 204.117188 191.382812 201.121094 C 193.253906 200.628906 195.4375 200.40625 198.210938 200.730469 C 206.042969 201.644531 207.582031 206.535156 207.285156 208.582031 C 206.992188 210.628906 205.347656 211.753906 204.800781 212.09375 C 204.25 212.433594 204.085938 212.550781 204.128906 212.804688 C 204.195312 213.167969 204.449219 213.15625 204.917969 213.078125 C 205.5625 212.96875 209.03125 211.414062 209.179688 207.636719 C 209.367188 202.839844 204.773438 197.476562 196.636719 197.613281 C 193.285156 197.671875 191.175781 197.992188 189.652344 198.558594 C 189.542969 198.429688 189.425781 198.304688 189.308594 198.175781 C 184.277344 192.808594 174.976562 189.011719 175.371094 181.796875 C 175.515625 179.171875 176.429688 172.265625 193.242188 163.886719 C 207.015625 157.019531 218.042969 158.910156 219.949219 163.097656 C 222.671875 169.078125 214.054688 180.191406 199.75 181.796875 C 194.300781 182.40625 191.429688 180.296875 190.714844 179.507812 C 189.964844 178.679688 189.851562 178.640625 189.574219 178.796875 C 189.117188 179.050781 189.40625 179.78125 189.574219 180.21875 C 190 181.332031 191.753906 183.300781 194.742188 184.285156 C 197.371094 185.148438 203.769531 185.617188 211.507812 182.625 C 220.171875 179.269531 226.941406 169.941406 224.953125 162.148438 Z M 188.078125 202.554688 C 188.726562 204.957031 188.65625 207.199219 187.988281 209.226562 C 187.914062 209.453125 187.832031 209.671875 187.742188 209.894531 C 187.652344 210.113281 187.554688 210.332031 187.453125 210.546875 C 186.9375 211.621094 186.242188 212.625 185.390625 213.554688 C 182.796875 216.382812 179.171875 217.453125 177.621094 216.550781 C 175.941406 215.578125 176.785156 211.589844 179.789062 208.410156 C 183.023438 204.988281 187.679688 202.789062 187.679688 202.789062 L 187.671875 202.777344 C 187.804688 202.703125 187.941406 202.628906 188.078125 202.554688 Z M 188.078125 202.554688"/><g clip-path="url(#b)"><g clip-path="url(#c)"><g clip-path="url(#d)"><g clip-path="url(#e)"><path fill="#E44D26" d="M 128.445312 249.410156 L 100.523438 168.5 L 181.363281 148.410156 L 194.558594 232.96875 L 163.738281 250.394531 Z M 128.445312 249.410156"/></g></g></g></g><g clip-path="url(#f)"><g clip-path="url(#g)"><g clip-path="url(#h)"><g clip-path="url(#i)"><path fill="#F16529" d="M 186.945312 229.265625 L 175.671875 157.007812 L 142.625 165.21875 L 162.042969 243.351562 Z M 186.945312 229.265625"/></g></g></g></g><g clip-path="url(#j)"><g clip-path="url(#k)"><g clip-path="url(#l)"><g clip-path="url(#m)"><path fill="#EBEBEB" d="M 145.113281 175.375 L 119.769531 181.675781 L 130.125 211.683594 L 152.773438 206.054688 L 150.25 195.90625 L 136.859375 199.234375 L 133.351562 189.074219 L 147.667969 185.515625 L 145.148438 175.367188 Z M 156.792969 222.230469 L 156.753906 222.25 L 144.722656 222 L 141.996094 214.085938 L 131.832031 216.613281 L 137.210938 232.191406 L 159.367188 232.785156 L 159.410156 232.761719 Z M 156.792969 222.230469"/></g></g></g></g><g clip-path="url(#n)"><g clip-path="url(#o)"><g clip-path="url(#p)"><g clip-path="url(#q)"><path fill="#FFF" d="M 152.738281 206.0625 L 165.203125 202.964844 L 167.324219 216.410156 L 156.796875 222.265625 L 159.421875 232.824219 L 178.734375 221.902344 L 173.773438 190.058594 L 150.25 195.902344 Z M 170.898438 171.859375 L 170.460938 169.078125 L 145.105469 175.378906 L 147.628906 185.523438 L 172.074219 179.449219 L 171.707031 177.117188 Z M 170.898438 171.859375"/></g></g></g></g></svg>