<svg xmlns="http://www.w3.org/2000/svg" width="375" viewBox="0 0 375 375" height="375" version="1.0"><defs><clipPath id="a"><path d="M 85.410156 170.78125 L 235.410156 170.78125 L 235.410156 261.53125 L 85.410156 261.53125 Z M 85.410156 170.78125"/></clipPath></defs><g clip-path="url(#a)"><path fill="#FFF" d="M 120.816406 194.449219 L 149.097656 194.449219 L 149.097656 196.707031 L 123.40625 196.707031 L 123.40625 213.675781 L 147.566406 213.675781 L 147.566406 215.929688 L 123.40625 215.929688 L 123.40625 234.5625 L 149.390625 234.5625 L 149.390625 236.820312 L 120.816406 236.820312 Z M 151.632812 194.449219 L 154.636719 194.449219 L 167.953125 213.082031 L 181.5625 194.449219 L 200.074219 170.78125 L 169.660156 215.042969 L 185.335938 236.820312 L 182.210938 236.820312 L 167.953125 216.996094 L 153.632812 236.820312 L 150.570312 236.820312 L 166.359375 215.042969 Z M 186.453125 196.707031 L 186.453125 194.449219 L 218.683594 194.449219 L 218.683594 196.707031 L 203.835938 196.707031 L 203.835938 236.820312 L 201.242188 236.820312 L 201.242188 196.707031 L 186.453125 196.703125 Z M 85.433594 194.449219 L 88.671875 194.449219 L 133.359375 261.527344 L 114.894531 236.820312 L 88.144531 197.65625 L 88.027344 236.820312 L 85.433594 236.820312 Z M 218.421875 233.886719 C 217.894531 233.886719 217.496094 233.472656 217.496094 232.9375 C 217.496094 232.40625 217.894531 231.996094 218.421875 231.996094 C 218.957031 231.996094 219.351562 232.40625 219.351562 232.9375 C 219.351562 233.472656 218.957031 233.886719 218.421875 233.886719 Z M 220.96875 231.398438 L 222.359375 231.398438 C 222.375 232.15625 222.925781 232.660156 223.730469 232.660156 C 224.632812 232.660156 225.144531 232.117188 225.144531 231.097656 L 225.144531 224.636719 L 226.558594 224.636719 L 226.558594 231.101562 C 226.558594 232.9375 225.496094 233.996094 223.746094 233.996094 C 222.101562 233.996094 220.96875 232.972656 220.96875 231.398438 Z M 228.40625 231.316406 L 229.804688 231.316406 C 229.921875 232.1875 230.769531 232.734375 231.988281 232.734375 C 233.121094 232.734375 233.953125 232.148438 233.953125 231.335938 C 233.953125 230.640625 233.421875 230.222656 232.21875 229.9375 L 231.046875 229.652344 C 229.402344 229.265625 228.652344 228.46875 228.652344 227.125 C 228.652344 225.496094 229.976562 224.417969 231.960938 224.417969 C 233.808594 224.417969 235.15625 225.496094 235.238281 227.035156 L 233.863281 227.035156 C 233.734375 226.195312 233 225.667969 231.941406 225.667969 C 230.824219 225.667969 230.082031 226.207031 230.082031 227.03125 C 230.082031 227.683594 230.5625 228.054688 231.746094 228.335938 L 232.75 228.582031 C 234.613281 229.019531 235.382812 229.78125 235.382812 231.152344 C 235.382812 232.902344 234.035156 233.996094 231.878906 233.996094 C 229.859375 233.996094 228.503906 232.953125 228.40625 231.316406 Z M 228.40625 231.316406"/></g></svg>