<svg xmlns="http://www.w3.org/2000/svg" xmlns:xlink="http://www.w3.org/1999/xlink" width="141.07" height="107.36" viewBox="0 0 141.07 107.36">
  <defs>
    <style>
      .cls-1 {
        fill: none;
      }

      .cls-2 {
        clip-path: url(#clip-path);
      }

      .cls-3 {
        fill: #f06292;
        fill-rule: evenodd;
      }

      .cls-4 {
        fill: #fff;
      }

      .cls-5 {
        clip-path: url(#clip-path-2);
      }

      .cls-6 {
        clip-path: url(#clip-path-3);
      }

      .cls-7 {
        fill: #e44d26;
      }

      .cls-8 {
        clip-path: url(#clip-path-6);
      }

      .cls-9 {
        fill: #f16529;
      }

      .cls-10 {
        clip-path: url(#clip-path-10);
      }

      .cls-11 {
        fill: #ebebeb;
      }

      .cls-12 {
        clip-path: url(#clip-path-14);
      }
    </style>
    <clipPath id="clip-path" transform="translate(-0.52 -0.04)">
      <rect class="cls-1" x="52.34" width="89.25" height="89.22"/>
    </clipPath>
    <clipPath id="clip-path-2" transform="translate(-0.52 -0.04)">
      <rect class="cls-1" y="5" width="95" height="103"/>
    </clipPath>
    <clipPath id="clip-path-3" transform="translate(-0.52 -0.04)">
      <rect class="cls-1" x="10.74" y="13.79" width="83.25" height="95.25" transform="translate(-13.27 14.44) rotate(-13.96)"/>
    </clipPath>
    <clipPath id="clip-path-6" transform="translate(-0.52 -0.04)">
      <rect class="cls-1" x="42" y="14" width="45" height="87"/>
    </clipPath>
    <clipPath id="clip-path-10" transform="translate(-0.52 -0.04)">
      <rect class="cls-1" x="19" y="32" width="41" height="58"/>
    </clipPath>
    <clipPath id="clip-path-14" transform="translate(-0.52 -0.04)">
      <rect class="cls-1" x="45" y="26" width="34" height="64"/>
    </clipPath>
  </defs>
  <g id="Layer_2" data-name="Layer 2">
    <g id="Layer_1-2" data-name="Layer 1">
      <g class="cls-2">
        <path class="cls-3" d="M97,0A44.64,44.64,0,1,1,52.31,44.68,44.64,44.64,0,0,1,97,0Z" transform="translate(-0.52 -0.04)"/>
      </g>
      <path class="cls-4" d="M125,19.15c-2-7.93-15.16-10.54-27.61-6.12-7.4,2.63-15.42,6.76-21.18,12.15-6.86,6.41-8,12-7.5,14.32,1.59,8.23,12.86,13.61,17.5,17.59v0c-1.37.67-11.37,5.73-13.71,10.91-2.47,5.45.39,9.37,2.29,9.9,5.87,1.63,11.89-1.31,15.14-6.13a15.4,15.4,0,0,0,1.5-13.68,18.15,18.15,0,0,1,6.83-.39c7.83.91,9.37,5.81,9.08,7.85a5.17,5.17,0,0,1-2.49,3.51c-.55.34-.71.46-.67.71s.32.36.79.28a6.12,6.12,0,0,0,4.26-5.44c.19-4.8-4.41-10.16-12.54-10a21.5,21.5,0,0,0-7,1c-.11-.13-.22-.26-.34-.38C84.28,49.81,75,46,75.37,38.8c.15-2.63,1.06-9.53,17.87-17.91C107,14,118,15.91,120,20.1c2.72,6-5.9,17.09-20.2,18.7-5.45.61-8.32-1.5-9-2.29s-.86-.87-1.14-.71c-.45.25-.16,1,0,1.42a8.53,8.53,0,0,0,5.17,4.07c2.63.86,9,1.33,16.77-1.67C120.17,36.27,126.94,26.94,125,19.15ZM88.08,59.55A11.46,11.46,0,0,1,88,66.23c-.08.22-.16.44-.25.66s-.19.44-.29.66a12.34,12.34,0,0,1-2.06,3c-2.59,2.83-6.22,3.9-7.77,3s-.83-5,2.17-8.14a30.15,30.15,0,0,1,7.89-5.62h0Z" transform="translate(-0.52 -0.04)"/>
      <g class="cls-5">
        <g class="cls-6">
          <g class="cls-6">
            <g class="cls-6">
              <path class="cls-7" d="M28.45,106.41.52,25.5,81.36,5.41,94.56,90,63.74,107.39Z" transform="translate(-0.52 -0.04)"/>
            </g>
          </g>
        </g>
      </g>
      <g class="cls-8">
        <g class="cls-6">
          <g class="cls-6">
            <g class="cls-6">
              <path class="cls-9" d="M87,86.27,75.67,14,42.62,22.22,62,100.35Z" transform="translate(-0.52 -0.04)"/>
            </g>
          </g>
        </g>
      </g>
      <g class="cls-10">
        <g class="cls-6">
          <g class="cls-6">
            <g class="cls-6">
              <path class="cls-11" d="M45.11,32.38l-25.34,6.3,10.35,30,22.65-5.63L50.25,52.91,36.86,56.23,33.35,46.07l14.32-3.55L45.15,32.37ZM56.79,79.23l0,0-12-.25L42,71.09,31.83,73.61l5.38,15.58,22.16.6,0,0Z" transform="translate(-0.52 -0.04)"/>
            </g>
          </g>
        </g>
      </g>
      <g class="cls-12">
        <g class="cls-6">
          <g class="cls-6">
            <g class="cls-6">
              <path class="cls-4" d="M52.74,63.06,65.2,60l2.12,13.45L56.8,79.27l2.62,10.55L78.73,78.9l-5-31.84L50.25,52.9ZM70.9,28.86l-.44-2.78-25.35,6.3,2.52,10.14,24.44-6.07-.36-2.33Z" transform="translate(-0.52 -0.04)"/>
            </g>
          </g>
        </g>
      </g>
    </g>
  </g>
</svg>
