<svg xmlns="http://www.w3.org/2000/svg" xmlns:xlink="http://www.w3.org/1999/xlink" width="150" height="150" viewBox="0 0 150 150">
  <defs>
    <style>
      .cls-1 {
        fill: none;
      }

      .cls-2 {
        clip-path: url(#clip-path);
      }

      .cls-3 {
        fill: #ffd600;
      }

      .cls-4 {
        fill: #000001;
      }
    </style>
    <clipPath id="clip-path">
      <rect class="cls-1" width="150" height="150"/>
    </clipPath>
  </defs>
  <g id="Layer_2" data-name="Layer 2">
    <g id="Layer_1-2" data-name="Layer 1">
      <g class="cls-2">
        <path class="cls-3" d="M0,0H150V150H0Z"/>
      </g>
      <path class="cls-4" d="M98.07,112.28c2.89,4.68,6,9.17,12.66,9.17,5.57,0,8.5-2.77,8.5-6.6,0-4.59-3-6.22-9.16-8.89l-3.36-1.44C97,100.41,90.55,95.25,90.55,84.36c0-10,7.69-17.69,19.7-17.69,8.55,0,14.7,3,19.13,10.72l-10.47,6.7c-2.3-4.12-4.8-5.74-8.66-5.74s-6.44,2.49-6.44,5.74c0,4,2.5,5.64,8.27,8.12l3.37,1.44c11.43,4.87,17.88,9.85,17.88,21,0,12-9.51,18.65-22.29,18.65-12.49,0-19.59-6.27-23.54-14Zm-48.27.34c2.11,3.77,5.31,6.68,9.92,6.68,4.41,0,7-1.74,7-8.51V66.67H80.55v46.25c0,14-8.13,20.41-20,20.41-10.74,0-18.49-7.27-21.65-14Z"/>
    </g>
  </g>
</svg>
