<svg xmlns="http://www.w3.org/2000/svg" xmlns:xlink="http://www.w3.org/1999/xlink" width="149.95" height="90.75" viewBox="0 0 149.95 90.75">
  <defs>
    <style>
      .cls-1 {
        fill: none;
      }

      .cls-2 {
        clip-path: url(#clip-path);
      }

      .cls-3 {
        fill: #fff;
      }
    </style>
    <clipPath id="clip-path" transform="translate(-0.02)">
      <rect class="cls-1" width="150" height="90.75"/>
    </clipPath>
  </defs>
  <g id="Layer_2" data-name="Layer 2">
    <g id="Layer_1-2" data-name="Layer 1">
      <g class="cls-2">
        <path class="cls-3" d="M35.41,23.67H63.69v2.26H38v17H62.16v2.26H38V63.78H64V66H35.41Zm30.81,0h3L82.54,42.3,96.15,23.67,114.66,0,84.25,44.26,99.93,66H96.8L82.54,46.21,68.22,66H65.16L81,44.26ZM101,25.93V23.67h32.23v2.26H118.43V66h-2.6V25.93H101ZM0,23.67H3.26L48,90.75,29.48,66,2.73,26.88,2.62,66H0ZM133,63.11a1,1,0,1,1,.93-1A.92.92,0,0,1,133,63.11Zm2.55-2.49H137a1.26,1.26,0,0,0,1.37,1.26c.9,0,1.41-.54,1.41-1.56V53.86h1.42v6.46a2.61,2.61,0,0,1-2.81,2.89A2.54,2.54,0,0,1,135.56,60.62Zm7.44-.08h1.39c.12.87,1,1.41,2.19,1.41s2-.58,2-1.4-.53-1.11-1.73-1.39l-1.17-.29c-1.65-.39-2.4-1.18-2.4-2.53,0-1.63,1.33-2.7,3.31-2.7s3.2,1.07,3.28,2.61h-1.38a1.73,1.73,0,0,0-1.92-1.36c-1.12,0-1.86.54-1.86,1.36,0,.65.48,1,1.67,1.3l1,.25c1.86.44,2.63,1.2,2.63,2.57,0,1.75-1.35,2.84-3.5,2.84S143.09,62.17,143,60.54Z" transform="translate(-0.02)"/>
      </g>
    </g>
  </g>
</svg>
