<svg xmlns="http://www.w3.org/2000/svg" xmlns:xlink="http://www.w3.org/1999/xlink" width="150" height="42.04" viewBox="0 0 150 42.04">
  <defs>
    <style>
      .cls-1 {
        fill: none;
      }

      .cls-2 {
        clip-path: url(#clip-path);
      }

      .cls-3 {
        fill: #83cd29;
      }

      .cls-4 {
        clip-path: url(#clip-path-2);
      }

      .cls-5 {
        fill: #404137;
      }

      .cls-6 {
        clip-path: url(#clip-path-3);
      }
    </style>
    <clipPath id="clip-path" transform="translate(-0.01 -0.25)">
      <rect class="cls-1" x="125.5" y="15" width="24.5" height="27.7"/>
    </clipPath>
    <clipPath id="clip-path-2" transform="translate(-0.01 -0.25)">
      <rect class="cls-1" width="118.5" height="42.7"/>
    </clipPath>
    <clipPath id="clip-path-3" transform="translate(-0.01 -0.25)">
      <rect class="cls-1" x="31.5" y="15" width="78" height="27.7"/>
    </clipPath>
  </defs>
  <g id="Layer_2" data-name="Layer 2">
    <g id="Layer_1-2" data-name="Layer 1">
      <g class="cls-2">
        <path class="cls-3" d="M138,15.16a2.08,2.08,0,0,0-1,.25L127,21.11a2.09,2.09,0,0,0-1,1.8V34.29a2.09,2.09,0,0,0,1,1.8l2.59,1.48a4.28,4.28,0,0,0,2.31.61c1.87,0,2.93-1.13,2.93-3.08V23.88a.28.28,0,0,0-.3-.27h-1.24a.27.27,0,0,0-.29.27V35.11c0,.86-.91,1.73-2.39,1l-2.7-1.57a.3.3,0,0,1-.17-.25V22.91a.33.33,0,0,1,.17-.27L137.85,17a.32.32,0,0,1,.3,0l9.92,5.68a.33.33,0,0,1,.17.27V34.29a.29.29,0,0,1-.15.27l-9.94,5.68a.32.32,0,0,1-.3,0l-2.55-1.51a.3.3,0,0,0-.26,0,6.43,6.43,0,0,1-1.49.67c-.17.06-.42.15.08.42l3.33,2a2.15,2.15,0,0,0,1,.27,2,2,0,0,0,1-.27L149,36.09a2.09,2.09,0,0,0,1-1.8V22.92a2.1,2.1,0,0,0-1-1.81L139,15.42a2.09,2.09,0,0,0-1-.26Zm2.66,8.13c-2.84,0-4.52,1.19-4.52,3.18,0,2.16,1.67,2.75,4.39,3,3.25.31,3.51.79,3.51,1.42,0,1.11-.89,1.57-3,1.57-2.63,0-3.21-.64-3.4-1.94a.27.27,0,0,0-.27-.25h-1.3a.26.26,0,0,0-.2.08.29.29,0,0,0-.09.21c0,1.66.91,3.62,5.25,3.62,3.15,0,5-1.22,5-3.37s-1.47-2.7-4.52-3.1-3.38-.61-3.38-1.32.25-1.39,2.54-1.39c2,0,2.79.44,3.1,1.8a.3.3,0,0,0,.28.24h1.28a.33.33,0,0,0,.22-.11.27.27,0,0,0,.08-.2c-.2-2.36-1.78-3.46-5-3.46Z" transform="translate(-0.01 -0.25)"/>
      </g>
      <g class="cls-4">
        <path class="cls-5" d="M79.53.25a.72.72,0,0,0-.32.08.62.62,0,0,0-.32.55v16a.42.42,0,0,1-.21.38.39.39,0,0,1-.44,0L75.6,15.77a1.19,1.19,0,0,0-1.26,0l-10.54,6a1.31,1.31,0,0,0-.64,1.11V35a1.19,1.19,0,0,0,.64,1.09l10.54,6a1.19,1.19,0,0,0,1.26,0l10.54-6A1.18,1.18,0,0,0,86.77,35V4.9a1.27,1.27,0,0,0-.65-1.11L79.85.31a.59.59,0,0,0-.32-.06ZM11.75,15.31a1.16,1.16,0,0,0-.57.15l-10.54,6A1.17,1.17,0,0,0,0,22.58L0,38.77a.62.62,0,0,0,.32.55.64.64,0,0,0,.63,0l6.25-3.56a1.28,1.28,0,0,0,.66-1.09V27.11A1.22,1.22,0,0,1,8.52,26l2.66-1.54a1.4,1.4,0,0,1,.63-.16,1.29,1.29,0,0,1,.64.16L15.11,26a1.24,1.24,0,0,1,.63,1.08v7.56a1.27,1.27,0,0,0,.65,1.09l6.25,3.57a.66.66,0,0,0,.64,0,.63.63,0,0,0,.31-.55l0-16.19A1.16,1.16,0,0,0,23,21.49l-10.53-6a1.27,1.27,0,0,0-.57-.15Zm94.68.15a1.23,1.23,0,0,0-.63.16l-10.54,6a1.26,1.26,0,0,0-.64,1.09V34.81a1.25,1.25,0,0,0,.66,1.09l10.45,5.91a1.27,1.27,0,0,0,1.25,0l6.33-3.49a.65.65,0,0,0,.34-.55.61.61,0,0,0-.32-.54l-10.6-6a.69.69,0,0,1-.34-.56V26.88a.66.66,0,0,1,.34-.55l3.3-1.88a.6.6,0,0,1,.63,0l3.3,1.88a.59.59,0,0,1,.32.55v3a.58.58,0,0,0,.31.54.64.64,0,0,0,.64,0l6.31-3.64a1.27,1.27,0,0,0,.64-1.09V22.75a1.18,1.18,0,0,0-.64-1.09l-10.47-6a1.29,1.29,0,0,0-.64-.16Zm-31.5,9a.33.33,0,0,1,.16.05l3.61,2.07a.34.34,0,0,1,.18.27V31a.32.32,0,0,1-.18.27l-3.61,2.08a.34.34,0,0,1-.31,0l-3.61-2.08A.31.31,0,0,1,71,31V26.86a.33.33,0,0,1,.17-.28l3.61-2.07a.24.24,0,0,1,.15,0Z" transform="translate(-0.01 -0.25)"/>
      </g>
      <g class="cls-6">
        <path class="cls-3" d="M43.4,15.39a1.24,1.24,0,0,0-.63.17l-10.54,6a1.3,1.3,0,0,0-.63,1.11V34.75a1.15,1.15,0,0,0,.63,1.09l10.54,6a1.15,1.15,0,0,0,1.26,0l10.54-6a1.18,1.18,0,0,0,.63-1.09V22.68a1.3,1.3,0,0,0-.63-1.11L44,15.56A1.27,1.27,0,0,0,43.4,15.39Zm63,10.77a.3.3,0,0,0-.13,0l-2,1.18a.21.21,0,0,0-.12.21v2.3a.24.24,0,0,0,.12.21l2,1.15a.19.19,0,0,0,.23,0l2-1.15a.25.25,0,0,0,.13-.21v-2.3a.23.23,0,0,0-.13-.21l-2-1.18A.16.16,0,0,0,106.41,26.16Z" transform="translate(-0.01 -0.25)"/>
      </g>
    </g>
  </g>
</svg>
