<svg xmlns="http://www.w3.org/2000/svg" xmlns:xlink="http://www.w3.org/1999/xlink" width="149.69" height="133.12" viewBox="0 0 149.69 133.12">
  <defs>
    <style>
      .cls-1 {
        fill: none;
      }

      .cls-2 {
        clip-path: url(#clip-path);
      }

      .cls-3 {
        fill: #00d8ff;
      }
    </style>
    <clipPath id="clip-path" transform="translate(-0.16 -0.9)">
      <rect class="cls-1" width="150" height="135"/>
    </clipPath>
  </defs>
  <g id="Layer_2" data-name="Layer 2">
    <g id="Layer_1-2" data-name="Layer 1">
      <g class="cls-2">
        <path class="cls-3" d="M123.23,44q-2.33-.8-4.82-1.52c.27-1.11.52-2.2.75-3.28,3.64-17.7,1.26-31.95-6.89-36.65-7.81-4.5-20.58.19-33.48,11.41q-1.86,1.62-3.72,3.42c-.83-.79-1.66-1.56-2.48-2.29-13.52-12-27.07-17-35.2-12.34C29.59,7.3,27.28,20.7,30.56,37.48q.48,2.43,1.1,5-2.86.82-5.54,1.75C10.28,49.7.16,58.35.16,67.33.16,76.6,11,85.91,27.53,91.55c1.3.44,2.65.86,4,1.26-.45,1.81-.84,3.6-1.17,5.34-3.13,16.48-.69,29.57,7.1,34,8,4.64,21.52-.13,34.65-11.6q1.56-1.36,3.12-2.88,2,1.95,4,3.69c12.72,10.94,25.29,15.36,33.06,10.87,8-4.65,10.64-18.71,7.25-35.82-.25-1.3-.56-2.64-.9-4,1-.28,1.88-.58,2.79-.87,17.16-5.69,28.32-14.87,28.32-24.27C149.84,58.32,139.39,49.61,123.23,44Zm-3.72,41.49c-.82.27-1.66.53-2.52.79a149,149,0,0,0-7.58-19,150.42,150.42,0,0,0,7.29-18.68q2.3.66,4.44,1.41C135,54.85,143.45,61.9,143.45,67.33,143.45,73.11,134.32,80.62,119.51,85.53Zm-6.15,12.18c1.5,7.56,1.71,14.4.71,19.74-.88,4.81-2.68,8-4.89,9.29-4.72,2.73-14.81-.82-25.68-10.17-1.25-1.08-2.51-2.23-3.77-3.43A152,152,0,0,0,92.28,97.21a149.56,149.56,0,0,0,20.27-3.12C112.86,95.32,113.12,96.52,113.36,97.71ZM51.19,126.27c-4.61,1.63-8.28,1.68-10.5.39-4.72-2.72-6.68-13.23-4-27.32.31-1.61.68-3.27,1.1-5A150.11,150.11,0,0,0,58,97.29,155.16,155.16,0,0,0,70.8,113.16c-1,.92-1.91,1.8-2.85,2.62C62.14,120.86,56.32,124.46,51.19,126.27ZM29.6,85.5c-7.3-2.5-13.33-5.74-17.46-9.28-3.71-3.17-5.59-6.33-5.59-8.89,0-5.45,8.13-12.4,21.68-17.12q2.47-.85,5.16-1.62a151.27,151.27,0,0,0,7.29,18.89,156.55,156.55,0,0,0-7.39,19.17C32,86.29,30.79,85.9,29.6,85.5Zm7.24-49.25C34,21.88,35.89,11,40.59,8.32c5-2.9,16.09,1.23,27.75,11.59.75.66,1.5,1.36,2.25,2.07A154,154,0,0,0,57.84,37.75a158,158,0,0,0-20,3.11C37.48,39.29,37.13,37.75,36.84,36.25ZM101.4,52.18q-2.22-3.82-4.55-7.48c4.78.6,9.35,1.41,13.65,2.39A134.73,134.73,0,0,1,105.71,60Q103.67,56.1,101.4,52.18ZM75.07,26.55a136.33,136.33,0,0,1,8.81,10.63Q79.49,37,75,37t-8.81.21C69.09,33.34,72.08,29.78,75.07,26.55ZM48.57,52.23c-1.48,2.56-2.89,5.15-4.22,7.74-1.87-4.42-3.46-8.76-4.76-12.95,4.27-1,8.83-1.73,13.57-2.33C51.59,47.14,50.05,49.66,48.57,52.23ZM53.3,90.42a133.85,133.85,0,0,1-13.8-2.21A140.28,140.28,0,0,1,44.36,75q2,3.89,4.24,7.74C50.11,85.36,51.69,87.92,53.3,90.42Zm22,18.14c-3-3.27-6-6.88-9-10.77Q70.55,98,75,98c3,0,6.07-.07,9-.2A137.91,137.91,0,0,1,75.25,108.56Zm30.52-33.79a136.55,136.55,0,0,1,5,13.16,137.94,137.94,0,0,1-14,2.38q2.34-3.69,4.6-7.61T105.77,74.77ZM95.89,79.5c-2.34,4.06-4.75,7.93-7.18,11.58-4.44.32-9,.48-13.71.48s-9.19-.14-13.55-.42c-2.54-3.7-5-7.59-7.32-11.6s-4.45-8-6.38-12.06c1.93-4,4.06-8.06,6.36-12.06s4.75-7.87,7.26-11.54c4.45-.34,9-.52,13.63-.52s9.2.18,13.65.52c2.48,3.65,4.9,7.5,7.22,11.51s4.5,8.07,6.45,12C100.38,71.4,98.23,75.46,95.89,79.5ZM109.08,8.12c5,2.9,7,14.55,3.81,29.83-.2,1-.43,2-.67,3a154.93,154.93,0,0,0-20-3.16A151.47,151.47,0,0,0,79.55,22q1.73-1.66,3.44-3.16C94,9.21,104.38,5.41,109.08,8.12ZM75,54A13.36,13.36,0,1,1,61.63,67.33,13.37,13.37,0,0,1,75,54Z" transform="translate(-0.16 -0.9)"/>
      </g>
    </g>
  </g>
</svg>
