<svg xmlns="http://www.w3.org/2000/svg" xmlns:xlink="http://www.w3.org/1999/xlink" width="150" height="150" viewBox="0 0 150 150">
  <defs>
    <style>
      .cls-1 {
        fill: none;
      }

      .cls-2 {
        clip-path: url(#clip-path);
      }

      .cls-3 {
        fill: #007acc;
      }

      .cls-4 {
        fill: #fff;
      }
    </style>
    <clipPath id="clip-path">
      <rect class="cls-1" width="150" height="150"/>
    </clipPath>
  </defs>
  <g id="Layer_2" data-name="Layer 2">
    <g id="Layer_1-2" data-name="Layer 1">
      <g class="cls-2">
        <path class="cls-3" d="M0,150H150V0H0Z"/>
      </g>
      <path class="cls-4" d="M33.16,75.49l0,6.15H52.64v55.47H66.45V81.64H86v-6c0-3.33-.07-6.12-.16-6.19s-12-.14-26.36-.12l-26.22.08Z"/>
      <path class="cls-4" d="M121,69.2a18.73,18.73,0,0,1,9.38,5.41A24.83,24.83,0,0,1,134,79.42c0,.19-6.47,4.57-10.43,7-.14.1-.71-.53-1.35-1.48-1.93-2.81-4-4-7-4.23-4.55-.31-7.48,2.07-7.46,6a5.44,5.44,0,0,0,.65,2.8c1,2.08,2.86,3.31,8.69,5.84,10.74,4.62,15.33,7.66,18.19,12,3.19,4.83,3.91,12.54,1.74,18.28-2.38,6.24-8.29,10.48-16.6,11.88a45.64,45.64,0,0,1-11.43-.12c-6-1.07-11.73-4-15.26-7.94-1.38-1.53-4.07-5.51-3.9-5.79a10,10,0,0,1,1.38-.88l5.57-3.22,4.31-2.5.9,1.33a20.23,20.23,0,0,0,5.7,5.46c4.78,2.52,11.35,2.16,14.59-.74a5.53,5.53,0,0,0,2-4.5,5.47,5.47,0,0,0-1.12-3.81c-1.16-1.67-3.54-3.07-10.3-6-7.74-3.33-11.08-5.41-14.12-8.69a19.69,19.69,0,0,1-4.12-7.5,29.85,29.85,0,0,1-.27-9.57c1.6-7.48,7.25-12.69,15.38-14.24A38.15,38.15,0,0,1,121,69.2Z"/>
    </g>
  </g>
</svg>
